<svg width="128" height="36" viewBox="0 0 128 36" fill="none" xmlns="http://www.w3.org/2000/svg">
<rect width="34" height="36" rx="5" fill="#598BF2"/>
<path d="M9 12.4304L11.9565 10.2025L14.9605 12.4304M9 12.4304V16.8861L11.9565 18.8945M9 12.4304L11.9565 14.4557L14.9605 12.4304M21.8696 16.8861V12.4304L18.5652 10L14.9605 12.4304M21.8696 16.8861L18.5652 14.4557L15.3478 16.7342M21.8696 16.8861L18.5652 19.0127M21.8696 16.8861L25 19.0127V23.5696M12.1304 19.0127L15.2609 21.1392L18.5652 19.0127M12.1304 19.0127L15.3478 16.7342M12.1304 19.0127L11.9565 18.8945M18.5652 19.0127L15.3478 16.7342M25 23.5696L21.8696 21.3418L19.034 23.3671M25 23.5696L21.8696 25.7975L19.034 23.3671M11.9565 18.8945V23.5696L15.3478 26L19.034 23.3671" stroke="white" stroke-width="1.5" stroke-linejoin="round"/>
<path d="M55.8217 30C53.6928 30 51.8123 29.6506 50.1802 28.9518C48.5717 28.2289 47.3063 27.1807 46.3838 25.8072C45.4613 24.4096 45 22.6988 45 20.6747V6.36145H51.6704V19.9518C51.6704 22.7952 53.0542 24.2169 55.8217 24.2169C57.1463 24.2169 58.1634 23.8675 58.873 23.1687C59.5826 22.4699 59.9374 21.3976 59.9374 19.9518V6.36145H66.6078V20.6747C66.6078 22.6988 66.1466 24.4096 65.2241 25.8072C64.3252 27.1807 63.0598 28.2289 61.4276 28.9518C59.8192 29.6506 57.9505 30 55.8217 30Z" fill="#598BF2"/>
<path d="M77.694 29.6386L68.9302 6.36145H75.8844L81.2066 21.759L86.5287 6.36145H93.5184L84.7546 29.6386H77.694Z" fill="#598BF2"/>
<path d="M95.4882 29.6386V6.36145H102.159V29.6386H95.4882Z" fill="#598BF2"/>
<path d="M116.327 30C112.542 30 109.645 29.0602 107.634 27.1807C105.647 25.3012 104.654 22.2651 104.654 18.0723C104.654 15.1807 105.103 12.8554 106.002 11.0964C106.901 9.31325 108.214 8.0241 109.94 7.22892C111.691 6.40964 113.819 6 116.327 6C118.834 6 120.951 6.40964 122.678 7.22892C124.428 8.0241 125.753 9.31325 126.652 11.0964C127.551 12.8554 128 15.1807 128 18.0723C128 22.2651 126.995 25.3012 124.984 27.1807C122.974 29.0602 120.088 30 116.327 30ZM116.327 24.2169C118.03 24.2169 119.26 23.7349 120.017 22.7711C120.797 21.7831 121.188 20.2169 121.188 18.0723C121.188 15.7831 120.797 14.1687 120.017 13.2289C119.26 12.2651 118.03 11.7831 116.327 11.7831C114.624 11.7831 113.382 12.2651 112.601 13.2289C111.844 14.1687 111.466 15.7831 111.466 18.0723C111.466 20.2169 111.844 21.7831 112.601 22.7711C113.382 23.7349 114.624 24.2169 116.327 24.2169Z" fill="#598BF2"/>
</svg>
