<svg width="15" height="15" viewBox="0 0 15 15" fill="none" xmlns="http://www.w3.org/2000/svg">
<g clip-path="url(#clip0_535_609)">
<path d="M11.25 7.32422V7.67578C11.25 7.86914 11.0918 8.02734 10.8984 8.02734H8.02734V10.8984C8.02734 11.0918 7.86914 11.25 7.67578 11.25H7.32422C7.13086 11.25 6.97266 11.0918 6.97266 10.8984V8.02734H4.10156C3.9082 8.02734 3.75 7.86914 3.75 7.67578V7.32422C3.75 7.13086 3.9082 6.97266 4.10156 6.97266H6.97266V4.10156C6.97266 3.9082 7.13086 3.75 7.32422 3.75H7.67578C7.86914 3.75 8.02734 3.9082 8.02734 4.10156V6.97266H10.8984C11.0918 6.97266 11.25 7.13086 11.25 7.32422ZM14.7656 7.5C14.7656 11.5137 11.5137 14.7656 7.5 14.7656C3.48633 14.7656 0.234375 11.5137 0.234375 7.5C0.234375 3.48633 3.48633 0.234375 7.5 0.234375C11.5137 0.234375 14.7656 3.48633 14.7656 7.5ZM13.8281 7.5C13.8281 3.9873 10.9775 1.17188 7.5 1.17188C3.9873 1.17188 1.17188 4.02246 1.17188 7.5C1.17188 11.0127 4.02246 13.8281 7.5 13.8281C11.0127 13.8281 13.8281 10.9775 13.8281 7.5Z" fill="white"/>
</g>
<defs>
<clipPath id="clip0_535_609">
<rect width="15" height="15" fill="white"/>
</clipPath>
</defs>
</svg>
