<svg width="16" height="16" viewBox="0 0 16 16" fill="none" xmlns="http://www.w3.org/2000/svg">
<g clip-path="url(#clip0_535_1163)">
<path d="M15.7036 14.6094L11.9243 10.8301C11.8569 10.7627 11.769 10.7275 11.6753 10.7275H11.3735C12.3784 9.64063 12.9937 8.19043 12.9937 6.59375C12.9937 3.22754 10.2661 0.5 6.8999 0.5C3.53369 0.5 0.806152 3.22754 0.806152 6.59375C0.806152 9.95996 3.53369 12.6875 6.8999 12.6875C8.49658 12.6875 9.94678 12.0723 11.0337 11.0703V11.3691C11.0337 11.4629 11.0718 11.5508 11.1362 11.6182L14.9155 15.3975C15.0532 15.5352 15.2759 15.5352 15.4136 15.3975L15.7036 15.1074C15.8413 14.9697 15.8413 14.7471 15.7036 14.6094ZM6.8999 11.75C4.04932 11.75 1.74365 9.44434 1.74365 6.59375C1.74365 3.74316 4.04932 1.4375 6.8999 1.4375C9.75049 1.4375 12.0562 3.74316 12.0562 6.59375C12.0562 9.44434 9.75049 11.75 6.8999 11.75Z" fill="white"/>
</g>
<defs>
<clipPath id="clip0_535_1163">
<rect width="15" height="15" fill="white" transform="translate(0.806152 0.5)"/>
</clipPath>
</defs>
</svg>
